<svg viewBox="0 0 500 500" xmlns="http://www.w3.org/2000/svg" xmlns:xlink="http://www.w3.org/1999/xlink" width="100%" id="blobSvg">
  <path id="blob" d="M482,285Q466,320,455,355.5Q444,391,407.5,404Q371,417,347.5,447.5Q324,478,287,486.5Q250,495,219,468.5Q188,442,158,430Q128,418,97.5,400.5Q67,383,63,347.5Q59,312,42,281Q25,250,39,218Q53,186,64,154.5Q75,123,93.5,91.5Q112,60,150,59Q188,58,219,33.5Q250,9,287,15.5Q324,22,360,35Q396,48,408.5,87Q421,126,443,153Q465,180,481.5,215Q498,250,482,285Z" fill="#55b6fb"></path>
</svg>