<svg viewBox="0 0 500 500" xmlns="http://www.w3.org/2000/svg" xmlns:xlink="http://www.w3.org/1999/xlink" width="100%" id="blobSvg">
  <path id="blob" d="M468,284.5Q462,319,437.5,343.5Q413,368,400.5,404Q388,440,351.5,444.5Q315,449,282.5,468Q250,487,214.5,477.5Q179,468,152.5,444.5Q126,421,94,403.5Q62,386,54,351Q46,316,27,283Q8,250,25,216Q42,182,54,149.5Q66,117,96,98Q126,79,154,59Q182,39,216,22.5Q250,6,283.5,25.5Q317,45,351.5,53.5Q386,62,401,95.5Q416,129,447.5,152Q479,175,476.5,212.5Q474,250,468,284.5Z" fill="#3d99d9"></path>
</svg>